<?xml version="1.0" encoding="UTF-8"?>
<svg id="Ebene_2" data-name="Ebene 2" xmlns="http://www.w3.org/2000/svg" viewBox="0 0 38.61 5.9">
  <defs>
    <style>
      .cls-1 {
        fill: #4a484a;
      }
    </style>
  </defs>
  <g id="Ebene_1-2" data-name="Ebene 1">
    <g>
      <path class="cls-1" d="M2.16.08h.67l2.16,5.71h-.78L2.65,1.5c-.03-.09-.06-.17-.08-.25s-.04-.16-.06-.25h-.04c-.02.09-.04.17-.06.25s-.05.16-.08.25L.75,5.78h-.75L2.16.08ZM1.16,3.69h2.66l.23.62H.93l.23-.62Z"/>
      <path class="cls-1" d="M6.98,2.77c0-.87.22-1.55.67-2.04s1.03-.73,1.73-.73c.64,0,1.14.17,1.51.52s.57.75.61,1.22v.04s-.74,0-.74,0v-.04c0-.26-.12-.51-.36-.74s-.58-.35-1.02-.35c-.5,0-.89.19-1.19.57s-.45.9-.45,1.56v.36c0,.66.15,1.19.45,1.56s.72.57,1.27.57c.29,0,.53-.03.74-.09s.4-.15.59-.28v-1.32h-1.41v-.62h2.13v2.21c-.18.18-.44.35-.79.51s-.77.23-1.27.23c-.75,0-1.35-.24-1.8-.73s-.67-1.17-.67-2.04v-.36Z"/>
      <path class="cls-1" d="M14.27.12h3.56v.62h-2.81v1.82h2.45v.62h-2.45v2h2.85v.62h-3.6V.12Z"/>
      <path class="cls-1" d="M20.38.12h.78l2.57,3.97c.05.08.1.16.15.23.05.08.08.15.11.21h.03c0-.08,0-.17,0-.26,0-.1,0-.18,0-.26V.12h.73v5.67h-.78l-2.57-3.97c-.05-.08-.1-.16-.14-.23-.04-.08-.08-.15-.12-.21h-.03c0,.08,0,.17,0,.26,0,.1,0,.18,0,.26v3.89h-.73V.12Z"/>
      <path class="cls-1" d="M27.45,2.77c0-.87.22-1.55.67-2.04s1.01-.73,1.68-.73,1.2.18,1.59.55.57.82.57,1.34v.04h-.75v-.04c0-.36-.12-.66-.35-.9s-.59-.36-1.06-.36-.85.18-1.15.53-.45.89-.45,1.61v.36c0,.66.15,1.19.45,1.56s.68.57,1.15.57.78-.12,1.01-.36.36-.54.4-.89v-.04h.75v.04c-.06.52-.26.96-.62,1.34s-.87.56-1.55.56-1.24-.24-1.68-.73-.67-1.17-.67-2.04v-.36Z"/>
      <path class="cls-1" d="M35.9,3.67l-1.96-3.55h.84l1.28,2.4c.04.08.08.15.11.21s.07.13.1.2h.02c.03-.07.06-.14.1-.2s.07-.14.11-.21l1.29-2.4h.81l-1.96,3.55v2.12h-.75v-2.12Z"/>
    </g>
  </g>
</svg>