<?xml version="1.0" encoding="UTF-8"?>
<svg id="Ebene_2" data-name="Ebene 2" xmlns="http://www.w3.org/2000/svg" viewBox="0 0 44.83 5.92">
  <defs>
    <style>
      .cls-1 {
        fill: #4a484a;
      }
    </style>
  </defs>
  <g id="Ebene_1-2" data-name="Ebene 1">
    <g>
      <path class="cls-1" d="M2.16.08h.67l2.16,5.73h-.78L2.66,1.51c-.03-.09-.06-.17-.08-.25s-.04-.16-.06-.25h-.04c-.02.09-.04.17-.06.25s-.05.16-.08.25L.75,5.8h-.75L2.16.08ZM1.16,3.7h2.67l.23.62H.93l.23-.62Z"/>
      <path class="cls-1" d="M7.01,2.78c0-.88.22-1.56.67-2.05s1.03-.73,1.74-.73c.64,0,1.15.17,1.51.52s.57.75.61,1.22v.04s-.75,0-.75,0v-.04c0-.26-.12-.51-.36-.75s-.58-.36-1.02-.36c-.5,0-.9.19-1.2.57s-.45.9-.45,1.57v.36c0,.67.15,1.19.45,1.57s.72.57,1.27.57c.29,0,.53-.03.74-.09s.41-.16.59-.29v-1.33h-1.41v-.62h2.14v2.22c-.18.18-.44.35-.79.51s-.77.23-1.27.23c-.75,0-1.36-.25-1.81-.73s-.67-1.17-.67-2.05v-.36Z"/>
      <path class="cls-1" d="M14.32.12h3.57v.62h-2.82v1.83h2.46v.62h-2.46v2.01h2.86v.62h-3.61V.12Z"/>
      <path class="cls-1" d="M20.46.12h.78l2.57,3.98c.05.08.1.16.15.23s.08.15.12.21h.03c0-.08,0-.17,0-.26s0-.19,0-.26V.12h.73v5.69h-.78l-2.57-3.98c-.05-.08-.1-.16-.14-.23s-.08-.15-.12-.21h-.03c0,.08,0,.17,0,.26s0,.19,0,.26v3.91h-.73V.12Z"/>
      <path class="cls-1" d="M27.08.12h4.41v.62h-1.83v5.07h-.75V.73h-1.83V.12Z"/>
      <path class="cls-1" d="M33.78.12h.75v3.85c0,.44.12.77.36.99s.56.32.95.32.71-.11.95-.32.36-.55.36-.99V.12h.75v3.85c0,.65-.2,1.14-.6,1.46s-.89.49-1.46.49-1.06-.16-1.46-.49-.6-.81-.6-1.46V.12Z"/>
      <path class="cls-1" d="M40.77.12h1.85c.61,0,1.08.15,1.41.46s.5.71.5,1.21-.17.91-.5,1.23-.8.47-1.41.47h-1.1v2.32h-.75V.12ZM42.62,2.88c.43,0,.73-.11.9-.32s.25-.47.25-.77-.08-.55-.25-.76-.47-.3-.9-.3h-1.1v2.15h1.1ZM42.6,3.18l.74-.11,1.48,2.74h-.84l-1.39-2.62Z"/>
    </g>
  </g>
</svg>