<?xml version="1.0" encoding="UTF-8"?>
<svg id="Ebene_2" data-name="Ebene 2" xmlns="http://www.w3.org/2000/svg" viewBox="0 0 47.72 5.92">
  <defs>
    <style>
      .cls-1 {
        fill: #4a484a;
      }
    </style>
  </defs>
  <g id="Ebene_1-2" data-name="Ebene 1">
    <g>
      <path class="cls-1" d="M0,.12h.75l.97,4.21c.02.09.04.16.04.21s.02.12.03.21h.04c.01-.09.02-.16.03-.21s.03-.12.05-.21L2.97.12h.76l1.1,4.21c.02.09.04.16.05.21s.02.12.03.21h.04c.01-.09.02-.16.03-.21s.03-.12.05-.21L5.95.12h.74l-1.4,5.73h-.73L3.46,1.62c-.02-.09-.04-.17-.06-.25s-.03-.16-.04-.25h-.03c-.01.09-.03.17-.04.25s-.04.16-.06.25l-1.1,4.22h-.73L0,.12Z"/>
      <path class="cls-1" d="M9.15.12h3.57v.62h-2.82v1.83h2.46v.62h-2.46v2.01h2.86v.62h-3.61V.12Z"/>
      <path class="cls-1" d="M15.29.12h1.88c.57,0,1.02.12,1.35.36s.49.62.49,1.14c0,.31-.08.57-.24.76s-.36.33-.59.42v.02c.29.08.52.24.7.46s.27.52.27.88c0,.52-.17.92-.51,1.21s-.8.43-1.36.43h-1.99V.12ZM17.16,2.54c.39,0,.67-.08.84-.24s.26-.39.26-.67-.09-.51-.26-.66-.45-.23-.84-.23h-1.14v1.8h1.14ZM17.28,5.19c.39,0,.68-.09.86-.28s.27-.43.27-.75-.09-.56-.27-.74-.47-.27-.86-.27h-1.26v2.04h1.26Z"/>
      <path class="cls-1" d="M21.5,4.2h.75v.05c0,.34.12.6.35.77s.56.26.97.26.74-.09.96-.27.33-.41.33-.7c0-.26-.11-.47-.32-.62s-.62-.32-1.22-.49c-.62-.18-1.06-.39-1.32-.63s-.39-.58-.39-1.03.17-.81.51-1.11.81-.44,1.41-.44,1.08.16,1.43.46.53.7.53,1.18v.05h-.75v-.05c0-.3-.1-.55-.3-.73s-.5-.28-.91-.28-.7.08-.89.24-.29.38-.29.65c0,.25.1.44.29.59s.6.3,1.21.47,1.05.39,1.33.64.41.62.41,1.09-.18.85-.55,1.15-.86.45-1.48.45-1.13-.15-1.5-.45-.57-.71-.57-1.22v-.05Z"/>
      <path class="cls-1" d="M28.17.12h3.57v.62h-2.82v1.83h2.46v.62h-2.46v2.01h2.86v.62h-3.61V.12Z"/>
      <path class="cls-1" d="M34.33.12h.75v5.69h-.75V.12Z"/>
      <path class="cls-1" d="M37.35.12h4.41v.62h-1.83v5.07h-.75V.73h-1.83V.12Z"/>
      <path class="cls-1" d="M44.11.12h3.57v.62h-2.82v1.83h2.46v.62h-2.46v2.01h2.86v.62h-3.61V.12Z"/>
    </g>
  </g>
</svg>