<?xml version="1.0" encoding="UTF-8"?>
<svg id="Ebene_2" data-name="Ebene 2" xmlns="http://www.w3.org/2000/svg" viewBox="0 0 41.43 5.9">
  <defs>
    <style>
      .cls-1 {
        fill: #4a484a;
      }
    </style>
  </defs>
  <g id="Ebene_1-2" data-name="Ebene 1">
    <g>
      <path class="cls-1" d="M0,.12h.75l.97,4.2c.02.09.04.16.04.21,0,.05.02.12.03.21h.04c.01-.09.02-.16.03-.21,0-.05.03-.12.05-.21L2.96.12h.76l1.09,4.2c.02.09.04.16.05.21,0,.05.02.12.03.21h.04c.01-.09.02-.16.03-.21.01-.05.03-.12.05-.21L5.92.12h.74l-1.39,5.71h-.72L3.45,1.62c-.02-.09-.04-.17-.06-.25-.02-.08-.03-.16-.04-.25h-.03c-.01.09-.03.17-.04.25-.02.08-.04.16-.06.25l-1.09,4.2h-.72L0,.12Z"/>
      <path class="cls-1" d="M9.11.12h3.56v.62h-2.81v1.82h2.45v.62h-2.45v2h2.85v.62h-3.6V.12Z"/>
      <path class="cls-1" d="M15.23.12h1.87c.57,0,1.02.12,1.35.36s.49.62.49,1.14c0,.31-.08.56-.24.76-.16.19-.35.33-.59.42v.02c.29.08.52.24.7.46.18.22.27.52.27.88,0,.52-.17.92-.51,1.21-.34.29-.79.43-1.36.43h-1.99V.12ZM17.1,2.53c.39,0,.67-.08.84-.24s.26-.38.26-.67-.09-.5-.26-.66-.45-.23-.84-.23h-1.14v1.8h1.14ZM17.22,5.17c.39,0,.67-.09.86-.28.18-.18.27-.43.27-.74s-.09-.56-.27-.74c-.18-.18-.47-.27-.86-.27h-1.25v2.03h1.25Z"/>
      <path class="cls-1" d="M21.42,4.19h.75v.05c0,.34.12.6.35.77.23.17.55.26.97.26s.73-.09.95-.26c.22-.18.33-.41.33-.69,0-.26-.11-.47-.32-.62s-.62-.32-1.21-.49c-.62-.18-1.05-.39-1.31-.63s-.39-.58-.39-1.02.17-.81.51-1.1c.34-.29.8-.44,1.4-.44s1.07.15,1.42.46c.35.31.53.7.53,1.18v.05h-.75v-.05c0-.3-.1-.54-.3-.73s-.5-.28-.9-.28-.69.08-.88.24c-.19.16-.28.37-.28.65,0,.25.1.44.29.58s.6.3,1.2.47,1.05.39,1.32.64c.27.26.41.62.41,1.09s-.18.85-.54,1.15c-.36.3-.86.45-1.48.45s-1.12-.15-1.5-.45c-.38-.3-.56-.7-.56-1.22v-.05Z"/>
      <path class="cls-1" d="M28.09.12h.75v5.67h-.75V.12Z"/>
      <path class="cls-1" d="M31.1.12h4.39v.62h-1.82v5.05h-.75V.73h-1.82V.12Z"/>
      <path class="cls-1" d="M37.84.12h3.56v.62h-2.81v1.82h2.45v.62h-2.45v2h2.85v.62h-3.6V.12Z"/>
    </g>
  </g>
</svg>